<svg xmlns="http://www.w3.org/2000/svg" width="1200" height="700" viewBox="0 0 1200 700" role="img" aria-label="Abstract sports scoreboard background">
  <defs>
    <linearGradient id="bg" x1="0" x2="1" y1="0" y2="1">
      <stop offset="0" stop-color="#102116"/>
      <stop offset="0.46" stop-color="#060806"/>
      <stop offset="1" stop-color="#171309"/>
    </linearGradient>
    <radialGradient id="light" cx="50%" cy="12%" r="75%">
      <stop offset="0" stop-color="#f7d273" stop-opacity=".35"/>
      <stop offset=".42" stop-color="#48c78e" stop-opacity=".12"/>
      <stop offset="1" stop-color="#000000" stop-opacity="0"/>
    </radialGradient>
  </defs>
  <rect width="1200" height="700" fill="url(#bg)"/>
  <rect width="1200" height="700" fill="url(#light)"/>
  <g opacity=".22" fill="none" stroke="#f8d377" stroke-width="2">
    <path d="M140 160h920v380H140z"/>
    <path d="M600 160v380"/>
    <circle cx="600" cy="350" r="86"/>
    <path d="M140 260h120v180H140M1060 260H940v180h120"/>
  </g>
  <g opacity=".18" stroke="#ffffff" stroke-width="1">
    <path d="M0 620h1200M0 580h1200M0 540h1200"/>
    <path d="M120 0v700M240 0v700M360 0v700M480 0v700M600 0v700M720 0v700M840 0v700M960 0v700M1080 0v700"/>
  </g>
</svg>
