<svg xmlns="http://www.w3.org/2000/svg" width="1600" height="900" viewBox="0 0 1600 900" role="img" aria-label="Tournament ribbon background">
  <defs>
    <linearGradient id="base" x1="0" x2="1" y1="0" y2="1">
      <stop offset="0" stop-color="#fcfbf7"/>
      <stop offset="0.5" stop-color="#f7f2e7"/>
      <stop offset="1" stop-color="#eef4fb"/>
    </linearGradient>
    <linearGradient id="gold" x1="0" x2="1" y1="0" y2="0">
      <stop offset="0" stop-color="#ffd67a"/>
      <stop offset="1" stop-color="#eab64a"/>
    </linearGradient>
    <linearGradient id="blue" x1="0" x2="1" y1="0" y2="1">
      <stop offset="0" stop-color="#2050d8"/>
      <stop offset="1" stop-color="#0a2e90"/>
    </linearGradient>
    <linearGradient id="green" x1="0" x2="1" y1="0" y2="1">
      <stop offset="0" stop-color="#1db48e"/>
      <stop offset="1" stop-color="#0a7d64"/>
    </linearGradient>
    <linearGradient id="red" x1="0" x2="1" y1="0" y2="1">
      <stop offset="0" stop-color="#ff6b67"/>
      <stop offset="1" stop-color="#d93848"/>
    </linearGradient>
  </defs>

  <rect width="1600" height="900" fill="url(#base)"/>

  <g opacity="0.12" fill="none" stroke="#0b2f8f" stroke-width="2">
    <path d="M180 140h1240v620H180z"/>
    <path d="M800 140v620"/>
    <circle cx="800" cy="450" r="118"/>
    <path d="M180 250h165v400H180M1420 250h-165v400h165"/>
    <path d="M0 760h1600"/>
    <path d="M0 790h1600"/>
    <path d="M0 820h1600"/>
  </g>

  <g opacity="0.92">
    <path fill="url(#blue)" d="M-60 108c182 15 276 49 427 151 104 69 165 101 246 115 54 9 112 4 187-18l25 72c-97 31-183 40-264 23-102-21-176-63-304-149C143 219 64 191-60 184z"/>
    <path fill="url(#red)" d="M1460 86c-125 50-211 114-300 236-58 79-107 127-184 180-64 43-132 77-228 108l-27-72c89-29 153-61 212-101 63-42 103-81 154-151 99-135 201-212 344-269z"/>
    <path fill="url(#green)" d="M130 705c157-48 259-56 426-18 105 24 181 30 261 13 56-12 108-37 171-82l44 61c-81 59-153 91-231 106-101 20-194 10-350-27-140-32-222-28-343 11z"/>
    <path fill="url(#gold)" d="M1228 742c-103-107-193-163-351-217-103-35-170-66-231-113-43-32-79-72-118-131l61-46c33 51 63 84 98 111 49 37 108 64 208 98 177 60 281 126 393 242z"/>
  </g>

  <g opacity="0.18" fill="#ffffff">
    <circle cx="273" cy="208" r="52"/>
    <circle cx="1322" cy="238" r="34"/>
    <circle cx="1243" cy="642" r="62"/>
    <circle cx="415" cy="670" r="28"/>
  </g>
</svg>
